<svg width="1440" height="10" viewBox="0 0 1440 10" fill="none" xmlns="http://www.w3.org/2000/svg">
<path d="M1430 0C1431.31 -5.74026e-08 1432.61 0.258658 1433.83 0.761205C1435.04 1.26375 1436.14 2.00035 1437.07 2.92893C1438 3.85752 1438.74 4.95991 1439.24 6.17317C1439.74 7.38642 1440 8.68678 1440 10H1430L1430 0Z" fill="#F7F7F7"/>
<path d="M10 0C8.68678 -5.74026e-08 7.38642 0.258658 6.17317 0.761205C4.95991 1.26375 3.85752 2.00035 2.92893 2.92893C2.00035 3.85752 1.26375 4.95991 0.761205 6.17317C0.258658 7.38642 0 8.68678 0 10H10L10 0Z" fill="#F7F7F7"/>
<rect x="10" width="1420" height="10" fill="#F7F7F7"/>
</svg>
