<svg width="392" height="336" viewBox="0 0 392 336" fill="none" xmlns="http://www.w3.org/2000/svg">
<path d="M232.236 10.11C218.786 2.62997 202.126 -2.29001 186.846 2.08999C174.986 5.48999 166.036 14.35 159.276 24.33C151.666 35.56 146.306 48.15 140.626 60.42C137.146 67.93 133.356 75.15 128.276 81.73C122.816 88.81 116.316 95.09 109.066 100.31C101.566 105.7 93.3061 109.91 84.5461 112.82C74.5561 116.14 64.1761 117.98 53.9261 120.3C37.0761 124.13 19.2061 130.08 8.17609 144.26C3.29609 150.53 0.396089 158.13 0.266089 166.1C0.126089 174.28 2.7461 182.34 6.8761 189.34C16.2461 205.25 32.5361 214.35 49.5361 220.18C67.7361 226.42 86.9461 229.39 104.766 236.79C113.666 240.49 122.186 245.34 129.246 251.97C136.246 258.55 141.656 266.56 146.466 274.82C155.536 290.42 162.836 307.43 175.906 320.26C181.936 326.18 189.146 330.97 197.286 333.41C205.466 335.85 214.206 335.85 222.516 334.08C261.566 325.75 278.946 286.4 294.686 254.09C303.486 236.03 313.246 218.45 328.076 204.6C342.396 191.23 359.486 181.03 372.836 166.59C384.696 153.77 393.616 137.35 391.526 119.38C389.536 102.3 378.906 87.19 365.866 76.5C350.846 64.19 332.266 56.99 314.226 50.37C304.546 46.82 294.746 43.51 285.346 39.25C276.066 35.04 267.146 30.11 258.336 25.01C254.126 22.57 249.946 20.09 245.746 17.63C241.286 15.02 236.656 12.76 232.146 10.25C231.796 10.05 231.476 10.59 231.826 10.79C236.326 13.29 240.606 16.2 245.046 18.81C249.246 21.27 253.426 23.75 257.636 26.19C266.246 31.18 274.966 36 284.016 40.14C301.966 48.36 321.146 53.51 339.046 61.87C355.736 69.66 371.436 80.12 381.456 95.94C386.056 103.2 389.336 111.4 390.236 119.98C391.176 128.93 389.376 137.88 385.556 145.99C377.556 162.98 362.646 175.1 348.136 186.37C340.436 192.35 332.656 198.28 325.626 205.05C318.826 211.59 312.976 218.98 307.896 226.92C297.536 243.11 290.286 260.99 281.396 277.98C272.716 294.56 262.096 311.16 246.476 322.02C232.046 332.05 213.036 337.43 195.926 331.55C179.086 325.76 167.956 310.43 159.476 295.59C150.476 279.83 142.996 262.54 129.266 250.16C115.706 237.94 97.8761 232.16 80.5761 227.54C62.2961 222.66 43.2061 218.66 27.0861 208.24C12.8661 199.05 1.04609 183.15 1.60609 165.56C2.16609 147.74 16.5661 135.21 31.8061 128.49C50.0961 120.42 70.6161 119.71 89.2161 112.55C104.796 106.55 118.606 96.21 128.876 83.07C137.996 71.41 143.136 57.52 149.546 44.32C155.076 32.93 161.346 21.25 170.836 12.63C180.636 3.71999 193.216 0.359982 206.256 2.17998C215.246 3.42998 223.796 6.62998 231.746 10.96C232.286 11.23 232.766 10.41 232.236 10.11Z" fill="#5177FE"/>
</svg>
