<svg width="449" height="384" viewBox="0 0 449 384" fill="none" xmlns="http://www.w3.org/2000/svg">
<path opacity="0.4248" d="M265.436 11.15C250.056 2.60001 230.996 -3.01998 213.526 2.00002C199.976 5.89002 189.746 16.02 182.026 27.42C173.316 40.28 167.186 54.69 160.676 68.73C156.686 77.34 152.346 85.6 146.536 93.14C140.286 101.25 132.836 108.46 124.516 114.43C115.926 120.61 106.456 125.43 96.4261 128.76C84.9961 132.56 73.1061 134.66 61.3761 137.33C42.1061 141.71 21.6561 148.51 9.0361 164.73C3.4661 171.89 0.1661 180.57 0.00609968 189.67C-0.1539 199.02 2.8461 208.22 7.5561 216.22C18.2661 234.41 36.8961 244.82 56.3361 251.48C77.1761 258.62 99.1661 262.02 119.566 270.49C129.776 274.73 139.546 280.29 147.636 287.89C155.656 295.42 161.856 304.6 167.366 314.07C177.736 331.92 186.096 351.39 201.056 366.07C207.946 372.84 216.176 378.31 225.486 381.1C234.836 383.89 244.816 383.89 254.316 381.87C298.986 372.34 318.866 327.31 336.876 290.34C346.956 269.66 358.126 249.52 375.126 233.66C391.526 218.36 411.086 206.68 426.366 190.15C439.926 175.49 450.126 156.72 447.726 136.17C445.446 116.65 433.286 99.37 418.376 87.15C401.196 73.07 379.936 64.83 359.306 57.26C348.216 53.19 336.986 49.4 326.216 44.52C315.596 39.7 305.376 34.06 295.296 28.21C290.476 25.42 285.686 22.58 280.886 19.76C275.786 16.77 270.506 14.14 265.346 11.27C264.996 11.07 264.676 11.61 265.026 11.81C270.176 14.67 275.106 17.96 280.196 20.94C284.996 23.76 289.796 26.59 294.606 29.39C304.456 35.1 314.436 40.62 324.796 45.36C345.346 54.77 367.306 60.66 387.796 70.23C406.916 79.16 424.896 91.14 436.386 109.26C441.656 117.58 445.416 126.99 446.446 136.83C447.526 147.1 445.456 157.35 441.066 166.66C431.896 186.12 414.826 200 398.216 212.91C389.396 219.76 380.496 226.54 372.446 234.29C364.666 241.77 357.976 250.23 352.166 259.31C340.306 277.85 332.006 298.32 321.826 317.77C311.876 336.77 299.716 355.78 281.816 368.22C265.276 379.71 243.476 385.88 223.866 379.13C204.566 372.49 191.796 354.93 182.076 337.91C171.776 319.88 163.216 300.09 147.506 285.92C131.996 271.94 111.596 265.33 91.8061 260.05C70.8761 254.46 49.0061 249.87 30.5561 237.95C14.2561 227.42 0.706102 209.18 1.3361 189.01C1.9761 168.58 18.4861 154.2 35.9561 146.49C56.8961 137.25 80.4061 136.44 101.706 128.23C119.516 121.37 135.316 109.53 147.066 94.51C157.506 81.16 163.386 65.27 170.716 50.17C177.056 37.12 184.236 23.75 195.106 13.87C206.356 3.65001 220.776 -0.19999 235.746 1.90001C246.046 3.34001 255.836 7.00002 264.936 11.97C265.496 12.26 265.976 11.44 265.436 11.15Z" fill="#5177FE"/>
</svg>
