<svg width="25" height="24" viewBox="0 0 25 24" fill="none" xmlns="http://www.w3.org/2000/svg">
<path d="M20.99 8.45C19.94 3.83 15.91 1.75 12.37 1.75C12.37 1.75 12.37 1.75 12.36 1.75C8.82997 1.75 4.78997 3.82 3.73997 8.44C2.56997 13.6 5.72997 17.97 8.58997 20.72C9.64997 21.74 11.01 22.25 12.37 22.25C13.73 22.25 15.09 21.74 16.14 20.72C19 17.97 22.16 13.61 20.99 8.45Z" fill="#262626"/>
<path d="M12.37 13.4599C14.1097 13.4599 15.52 12.0496 15.52 10.3099C15.52 8.57022 14.1097 7.15991 12.37 7.15991C10.6303 7.15991 9.21997 8.57022 9.21997 10.3099C9.21997 12.0496 10.6303 13.4599 12.37 13.4599Z" fill="#0D92FF"/>
</svg>
